<svg width="98" height="34" viewBox="0 0 98 34" fill="none" xmlns="http://www.w3.org/2000/svg">
<path d="M1.04492 18.3901H3.50492V11.6301H11.2449V18.3901H13.7049V2.73014H11.2449V9.29014H3.50492V2.73014H1.04492V18.3901ZM17.3851 5.35014C18.0051 5.97014 18.9651 5.97014 19.5851 5.35014C20.2051 4.73014 20.2051 3.77014 19.5851 3.15014C18.9651 2.51014 18.0051 2.51014 17.3851 3.15014C16.7651 3.77014 16.7651 4.73014 17.3851 5.35014ZM19.6851 7.71014H17.3051V18.3901H19.6851V7.71014ZM28.7115 7.67014C28.5715 7.63014 28.3915 7.61014 28.1315 7.61014C26.8315 7.61014 25.8515 8.21014 25.1915 9.41014V7.71014H22.8715V18.3901H25.2515V12.9701C25.2515 11.1101 26.2115 10.0501 28.0315 10.0501C28.2915 10.0501 28.5115 10.0701 28.7115 10.1101V7.67014ZM40.3087 13.7501C40.3287 13.5701 40.3487 13.3301 40.3487 13.0101C40.3487 11.3501 39.8887 10.0301 38.9687 9.01014C38.0487 7.99014 36.7687 7.49014 35.1487 7.49014C33.6087 7.49014 32.3287 8.03014 31.3087 9.11014C30.2887 10.1901 29.7687 11.4901 29.7687 13.0301C29.7687 14.6101 30.3087 15.9501 31.3687 17.0101C32.4487 18.0701 33.7887 18.5901 35.3687 18.5901C37.2887 18.5901 39.0287 17.6701 39.9287 16.0101L38.2087 14.8701C37.6287 15.9701 36.6687 16.5301 35.3287 16.5301C34.5087 16.5301 33.7887 16.2701 33.1687 15.7501C32.5487 15.2101 32.2287 14.5501 32.2087 13.7501H40.3087ZM35.1487 9.53014C36.6687 9.53014 37.8487 10.4501 37.9287 11.9501H32.3287C32.5487 10.4901 33.6887 9.53014 35.1487 9.53014ZM46.3134 18.3901H49.5334V5.87014H54.2334V2.73014H41.6134V5.87014H46.3134V18.3901ZM57.2349 18.5901C58.6549 18.5901 59.7149 18.0701 60.4349 17.0501L60.4749 17.0701V18.3901H63.3549V11.7701C63.3549 8.97014 61.5349 7.47014 58.7149 7.47014C56.3749 7.47014 54.7349 8.31014 53.8149 10.0101L56.1949 11.4301C56.7349 10.4701 57.5149 9.99014 58.5749 9.99014C59.6949 9.99014 60.2949 10.5701 60.2949 11.3101C60.2949 11.8301 60.0149 12.0901 59.4549 12.0901H58.3949C57.1949 12.0901 56.1949 12.2701 55.2149 12.7301C54.2549 13.1901 53.6349 14.1101 53.6349 15.3701V15.4101C53.6349 16.3701 53.9749 17.1501 54.6749 17.7301C55.3749 18.3101 56.2349 18.5901 57.2349 18.5901ZM58.1349 16.3101C57.3349 16.3101 56.7749 15.9501 56.7749 15.2301C56.7749 14.4301 57.4949 14.0101 58.3949 14.0101H60.2749V14.2501C60.2749 15.4301 59.4749 16.3101 58.1349 16.3101ZM69.2495 2.11014H66.1295V18.3901H69.1695V17.1101H69.2095C69.9495 18.0901 71.0295 18.5901 72.4495 18.5901C73.9495 18.5901 75.1695 18.0301 76.1495 16.9101C77.1295 15.7701 77.6095 14.4901 77.6095 13.0301C77.6095 11.5901 77.1295 10.3101 76.1895 9.19014C75.2495 8.07014 74.0295 7.51014 72.5295 7.51014C71.1495 7.51014 70.0695 8.01014 69.2895 8.99014H69.2495V2.11014ZM69.1695 13.0301C69.1695 12.2501 69.4295 11.5901 69.9295 11.0901C70.4295 10.5901 71.0495 10.3301 71.7895 10.3301C72.5295 10.3301 73.1695 10.5901 73.6695 11.0901C74.1895 11.5901 74.4495 12.2501 74.4495 13.0301C74.4495 13.8301 74.1895 14.4901 73.6895 15.0101C73.1895 15.5101 72.5495 15.7701 71.8095 15.7701C71.0695 15.7701 70.4295 15.5101 69.9295 15.0101C69.4295 14.4901 69.1695 13.8301 69.1695 13.0301ZM82.9804 2.09014H79.8404V18.3901H82.9804V2.09014ZM96.136 13.9101C96.156 13.6701 96.176 13.2901 96.176 12.7901C96.176 11.2101 95.676 9.91014 94.696 8.93014C93.716 7.95014 92.436 7.45014 90.856 7.45014C89.316 7.45014 87.976 7.99014 86.856 9.09014C85.756 10.1901 85.196 11.4901 85.196 13.0301C85.196 14.6701 85.756 16.0101 86.876 17.0701C88.016 18.1101 89.396 18.6301 91.056 18.6301C93.236 18.6301 94.756 17.8301 95.656 16.2101L93.396 14.7301C92.916 15.5101 91.956 16.0101 91.016 16.0101C89.676 16.0101 88.556 15.2101 88.376 13.9101H96.136ZM88.456 11.8501C88.516 11.4301 88.756 11.0101 89.176 10.6101C89.596 10.1901 90.136 9.99014 90.776 9.99014C92.196 9.99014 92.976 10.9101 93.056 11.8501H88.456Z" fill="#FAFAFA"/>
<path d="M51 22.3901C54.4844 28.3745 60.8789 32.3901 68.2 32.3901C75.5211 32.3901 81.9156 28.3745 85.4 22.3901" stroke="#FAFAFA" stroke-width="2" stroke-miterlimit="10" stroke-linecap="square"/>
</svg>
