<svg width="165" height="165" viewBox="0 0 165 165" fill="none" xmlns="http://www.w3.org/2000/svg">
<rect x="0.5" y="0.5" width="164" height="164" rx="82" fill="#5043FF"/>
<path fill-rule="evenodd" clip-rule="evenodd" d="M147.483 101.314L141.268 105.21L137.372 98.9939L138.033 96.1109L141.124 101.044L142.961 93.0382L145.051 93.5176L143.214 101.523L148.144 98.4315L147.483 101.314Z" fill="#FAFAFA"/>
<path fill-rule="evenodd" clip-rule="evenodd" d="M34.212 129.318L34.8483 122.011L42.1561 122.647L44.0588 124.912L38.2595 124.406L43.5423 130.696L41.9004 132.075L36.6176 125.785L36.1146 131.583L34.212 129.318Z" fill="#FAFAFA"/>
<path fill-rule="evenodd" clip-rule="evenodd" d="M65.7958 20.2335L72.1204 23.9495L68.4044 30.2741L65.5418 31.0185L68.4912 25.9997L60.5415 28.0657L60.0021 25.9905L67.9519 23.9245L62.9331 20.9779L65.7958 20.2335Z" fill="#FAFAFA"/>
<path d="M82.39 23.3688V25.2142H84.6239V25.3946C84.6239 26.7821 83.6526 27.5592 82.3345 27.5592C80.4197 27.5592 79.504 26.0468 79.504 23.9794C79.504 21.9258 80.503 20.3302 82.4871 20.3302C83.6249 20.3302 84.4297 20.8436 85.0679 21.8148L86.8023 20.6077C85.8588 19.2618 84.4158 18.457 82.4178 18.457C78.9073 18.457 77.0342 20.8991 77.0342 24.021C77.0342 27.0041 78.6853 29.4184 81.8489 29.4184C83.3335 29.4184 84.1938 28.8495 84.7349 28.1697H84.7627L84.8182 29.2658H86.9549V23.3688H82.39Z" fill="#FAFAFA"/>
<path d="M96.0607 30.8243L96.3339 29.0153L91.3844 28.2678L91.754 25.8204L95.9657 26.4564L96.2369 24.6607L92.0251 24.0247L92.3807 21.6703L97.2363 22.4036L97.5094 20.5946L90.3065 19.5068L88.7639 29.7224L96.0607 30.8243Z" fill="#FAFAFA"/>
<path d="M101.99 32.4527L105.469 24.4025L108.587 25.7501L109.349 23.9867L100.865 20.3193L100.102 22.0827L103.22 23.4304L99.7406 31.4806L101.99 32.4527Z" fill="#FAFAFA"/>
<path d="M113.562 38.6392C116.003 39.8186 117.916 39.2526 118.739 37.5488C119.65 35.6638 118.445 34.3956 116.982 33.2269C115.787 32.2766 115.174 31.7867 115.519 31.0738C115.793 30.5059 116.486 30.2744 117.429 30.7299C118.359 31.1795 119.048 31.9445 119.505 32.9407L121.179 32.0057C120.654 30.8723 119.782 29.8697 118.235 29.1223C115.915 28.0012 114.081 28.6503 113.311 30.2453C112.429 32.0699 113.617 33.3744 115.013 34.496C116.22 35.452 116.882 35.9953 116.526 36.7324C116.199 37.4091 115.468 37.563 114.381 37.0375C113.305 36.5178 112.556 35.6636 112.145 34.6307L110.356 35.4653C110.889 36.7365 111.834 37.8042 113.562 38.6392Z" fill="#FAFAFA"/>
<path d="M120.798 44.4408L126.311 37.8288L128.78 39.8868L129.987 38.4384L123.27 32.8379L122.063 34.2862L124.531 36.3443L119.018 42.9563L120.798 44.4408Z" fill="#FAFAFA"/>
<path d="M134.952 67.8325L143.152 65.6353L143.995 68.7838L145.791 68.3026L143.496 59.7344L141.699 60.2157L142.543 63.3642L134.343 65.5614L134.952 67.8325Z" fill="#FAFAFA"/>
<path d="M127.512 51.9822L129.008 53.8075L134.421 44.6857L132.688 42.5711L122.689 46.0973L124.136 47.8628L126.288 47.049L128.733 50.0313L127.512 51.9822ZM127.992 46.4036L131.924 44.9149L131.94 44.9349L129.7 48.4882L127.992 46.4036Z" fill="#FAFAFA"/>
<path d="M132.907 60.1012L134.172 62.3098L136.978 58.2418C137.918 58.9804 139.097 59.1562 140.253 58.4946C141.889 57.5578 142.109 55.7913 141.126 54.0748L138.768 49.9551L129.979 54.9858L131.132 56.9999L134.542 55.0479L135.44 56.6157L132.907 60.1012ZM138.364 52.86L139.439 54.7368C139.799 55.3662 139.746 56.0957 138.956 56.5476C138.178 56.9931 137.51 56.6763 137.15 56.0469L136.076 54.1701L138.364 52.86Z" fill="#FAFAFA"/>
<path d="M137.561 78.0566L139.36 77.7281L138.469 72.8466L140.903 72.4021L141.661 76.5561L143.447 76.23L142.689 72.076L145.03 71.6485L145.905 76.4374L147.704 76.1089L146.407 69.0049L136.247 70.86L137.561 78.0566Z" fill="#FAFAFA"/>
<path d="M137.959 79.7564L138.6 83.4218C139.164 86.6479 141.519 87.9824 144.306 87.495C146.866 87.0472 148.842 85.1752 148.231 81.6855L147.599 78.0703L137.959 79.7564ZM140.052 81.6671L146.278 80.5782L146.483 81.7456C146.805 83.5908 145.996 84.8837 143.875 85.2547C141.804 85.617 140.592 84.7551 140.265 82.8847L140.052 81.6671Z" fill="#FAFAFA"/>
<path d="M28.2074 115.326L29.8056 114.403L28.6886 112.468L28.8449 112.378C30.0465 111.684 31.205 112.137 31.8641 113.279C32.8215 114.937 31.9696 116.486 30.1792 117.52C28.4008 118.547 26.5194 118.479 25.5273 116.761C24.9584 115.776 25.0007 114.822 25.5227 113.784L23.61 112.885C22.9162 114.375 22.9408 116.027 23.9398 117.758C25.695 120.798 28.7465 121.199 31.4501 119.638C34.0336 118.146 35.2989 115.509 33.7171 112.77C32.9748 111.484 32.052 111.023 31.1926 110.895L31.1787 110.871L32.1003 110.274L31.0319 108.424L25.925 111.372L28.2074 115.326Z" fill="#FAFAFA"/>
<path d="M27.8277 99.7594L26.1244 100.427L27.9519 105.087L25.6475 105.991L24.0925 102.026L22.4017 102.689L23.9568 106.654L21.7401 107.523L19.9473 102.952L18.2441 103.62L20.9036 110.401L30.5218 106.63L27.8277 99.7594Z" fill="#FAFAFA"/>
<path d="M26.2742 93.8106L17.5627 94.8223L17.1709 91.4483L15.2626 91.6699L16.3289 100.852L18.2372 100.63L17.8453 97.256L26.5569 96.2443L26.2742 93.8106Z" fill="#FAFAFA"/>
<path d="M25.8455 80.6951C25.6466 77.9915 24.1998 76.6178 22.3126 76.7566C20.2247 76.9103 19.7292 78.5885 19.4482 80.4393C19.223 81.9496 19.1051 82.7253 18.3155 82.7834C17.6864 82.8297 17.1394 82.3451 17.0625 81.3012C16.9867 80.2706 17.3049 79.2917 17.9388 78.3973L16.2921 77.4151C15.5733 78.4368 15.141 79.6932 15.2671 81.4064C15.4562 83.9762 16.9353 85.2399 18.702 85.1099C20.723 84.9611 21.2587 83.28 21.5321 81.5105C21.7564 79.9868 21.8961 79.1422 22.7125 79.0821C23.462 79.027 23.9604 79.5824 24.0491 80.787C24.1368 81.9782 23.7719 83.0546 23.0825 83.9262L24.6999 85.0587C25.5342 83.9611 25.9864 82.6091 25.8455 80.6951Z" fill="#FAFAFA"/>
<path d="M27.252 71.5268L18.7693 70.0584L19.3174 66.8918L17.4593 66.5701L15.9676 75.1875L17.8257 75.5092L18.3739 72.3425L26.8566 73.8109L27.252 71.5268Z" fill="#FAFAFA"/>
<path d="M40.4335 47.5749L34.4307 41.5721L36.7356 39.2672L35.4207 37.9523L29.1483 44.2246L30.4632 45.5395L32.7681 43.2346L38.7709 49.2374L40.4335 47.5749Z" fill="#FAFAFA"/>
<path d="M30.426 61.9424L31.2588 59.7342L20.6525 59.6072L19.6878 62.1653L27.7411 69.0617L28.5465 66.9259L26.7655 65.4686L28.1262 61.8607L30.426 61.9424ZM25.355 64.3164L22.0997 61.6553L22.1088 61.6312L26.3061 61.7945L25.355 64.3164Z" fill="#FAFAFA"/>
<path d="M34.7601 53.2104L36.0407 51.0113L31.1144 50.6145C31.2843 49.4317 30.8469 48.3225 29.696 47.6524C28.0666 46.7035 26.427 47.3967 25.4317 49.1059L23.043 53.208L31.7942 58.3039L32.962 56.2984L29.5663 54.3211L30.4754 52.76L34.7601 53.2104ZM25.7605 52.1049L26.8487 50.2362C27.2136 49.6095 27.8721 49.291 28.6583 49.7489C29.4332 50.2001 29.4926 50.9365 29.1276 51.5632L28.0395 53.432L25.7605 52.1049Z" fill="#FAFAFA"/>
<path d="M49.4127 38.7726L48.2286 37.3787L44.4467 40.5914L42.8448 38.7056L46.0629 35.9718L44.8876 34.5882L41.6694 37.322L40.1283 35.5079L43.8385 32.3562L42.6544 30.9623L37.1507 35.6377L43.8373 43.5089L49.4127 38.7726Z" fill="#FAFAFA"/>
<path d="M50.2852 37.5534L53.2799 35.3448C55.9157 33.401 56.0599 30.698 54.3808 28.4211C52.8378 26.3289 50.2813 25.3958 47.4302 27.4985L44.4764 29.6768L50.2852 37.5534ZM51.0616 34.8274L47.3101 29.7404L48.2639 29.037C49.7716 27.9252 51.2894 28.0725 52.5676 29.8058C53.8156 31.498 53.5846 32.9668 52.0564 34.0937L51.0616 34.8274Z" fill="#FAFAFA"/>
<path d="M135.799 114.233L134.2 113.31L133.083 115.245L132.927 115.155C131.726 114.461 131.538 113.231 132.197 112.09C133.155 110.432 134.922 110.395 136.713 111.429C138.491 112.455 139.374 114.118 138.382 115.837C137.813 116.822 136.966 117.262 135.805 117.329L135.984 119.435C137.621 119.291 139.039 118.443 140.038 116.713C141.794 113.673 140.615 110.83 137.912 109.269C135.328 107.777 132.412 108 130.83 110.74C130.088 112.025 130.15 113.055 130.468 113.863L130.455 113.888L129.478 113.388L128.409 115.238L133.516 118.187L135.799 114.233Z" fill="#FAFAFA"/>
<path d="M122.508 122.345L123.938 123.486L127.06 119.573L128.995 121.117L126.338 124.447L127.757 125.579L130.414 122.25L132.275 123.735L129.212 127.573L130.642 128.715L135.186 123.021L127.11 116.577L122.508 122.345Z" fill="#FAFAFA"/>
<path d="M118.132 126.665L123.364 133.704L120.638 135.73L121.784 137.272L129.203 131.758L128.056 130.216L125.33 132.242L120.098 125.204L118.132 126.665Z" fill="#FAFAFA"/>
<path d="M106.988 133.595C104.746 135.12 104.28 137.059 105.344 138.624C106.521 140.356 108.222 139.946 109.965 139.264C111.386 138.703 112.117 138.418 112.562 139.073C112.916 139.594 112.77 140.31 111.905 140.899C111.05 141.48 110.043 141.694 108.952 141.592L108.924 143.509C110.169 143.621 111.473 143.367 112.894 142.401C115.024 140.952 115.379 139.04 114.383 137.575C113.244 135.899 111.52 136.275 109.851 136.923C108.419 137.491 107.618 137.792 107.158 137.115C106.735 136.494 106.967 135.784 107.966 135.105C108.954 134.434 110.069 134.211 111.168 134.373L111.34 132.406C109.972 132.232 108.575 132.516 106.988 133.595Z" fill="#FAFAFA"/>
<path d="M98.3457 136.96L101.315 145.041L98.2989 146.149L98.9494 147.919L107.158 144.902L106.508 143.132L103.491 144.241L100.522 136.16L98.3457 136.96Z" fill="#FAFAFA"/>
<path d="M71.0117 137.521L68.8145 145.721L65.666 144.878L65.1847 146.674L73.7529 148.97L74.2342 147.174L71.0856 146.33L73.2828 138.13L71.0117 137.521Z" fill="#FAFAFA"/>
<path d="M88.458 139.004L86.1292 139.387L91.3224 148.636L94.0202 148.192L95.9659 137.77L93.7136 138.14L93.342 140.411L89.5371 141.037L88.458 139.004ZM93.0494 142.209L92.3725 146.358L92.3471 146.363L90.3898 142.646L93.0494 142.209Z" fill="#FAFAFA"/>
<path d="M78.7286 139.616L76.1837 139.607L78.3033 144.071C77.194 144.516 76.4521 145.449 76.4472 146.781C76.4402 148.666 77.8603 149.74 79.8382 149.747L84.585 149.765L84.6226 139.638L82.3019 139.629L82.2873 143.559L80.4809 143.552L78.7286 139.616ZM82.271 147.963L80.1085 147.955C79.3833 147.952 78.7783 147.541 78.7817 146.631C78.785 145.735 79.3931 145.315 80.1183 145.318L82.2808 145.326L82.271 147.963Z" fill="#FAFAFA"/>
<path d="M60.8521 134.669L60.237 136.391L64.9102 138.06L64.078 140.39L60.1014 138.97L59.4908 140.68L63.4675 142.1L62.667 144.342L58.0824 142.704L57.4674 144.427L64.2682 146.855L67.7416 137.129L60.8521 134.669Z" fill="#FAFAFA"/>
<path d="M59.1808 134.163L55.6859 132.886C52.61 131.762 50.2767 133.134 49.3055 135.791C48.4129 138.233 49.0465 140.879 52.3738 142.095L55.8208 143.355L59.1808 134.163ZM56.4793 135.021L54.3093 140.958L53.1962 140.551C51.4368 139.908 50.7216 138.561 51.461 136.538C52.1829 134.563 53.535 133.945 55.3184 134.597L56.4793 135.021Z" fill="#FAFAFA"/>
</svg>
